<svg xmlns="http://www.w3.org/2000/svg" width="560" height="360" viewBox="0 0 560 360" font-family="sans-serif" font-size="13">
<title>A hex lattice of ringgrid markers addressed by axial coordinates (q, r), with the two lattice basis directions shown as arrows</title>
<defs><marker id="hb" markerWidth="9" markerHeight="9" refX="7" refY="3" orient="auto"><path d="M0,0 L7,3 L0,6 Z" fill="#4c9f70"/></marker></defs>
<circle cx="99.9" cy="108.0" r="22" fill="none" stroke="#888" stroke-width="2" stroke-opacity="0.65"/>
<circle cx="99.9" cy="108.0" r="10" fill="none" stroke="#888" stroke-width="1.4" stroke-opacity="0.6"/>
<circle cx="99.9" cy="108.0" r="1.8" fill="#888" fill-opacity="0.7"/>
<circle cx="189.9" cy="108.0" r="22" fill="none" stroke="#888" stroke-width="2" stroke-opacity="0.65"/>
<circle cx="189.9" cy="108.0" r="10" fill="none" stroke="#888" stroke-width="1.4" stroke-opacity="0.6"/>
<circle cx="189.9" cy="108.0" r="1.8" fill="#888" fill-opacity="0.7"/>
<circle cx="280.0" cy="108.0" r="22" fill="none" stroke="#888" stroke-width="2" stroke-opacity="0.65"/>
<circle cx="280.0" cy="108.0" r="10" fill="none" stroke="#888" stroke-width="1.4" stroke-opacity="0.6"/>
<circle cx="280.0" cy="108.0" r="1.8" fill="#888" fill-opacity="0.7"/>
<circle cx="370.1" cy="108.0" r="22" fill="none" stroke="#888" stroke-width="2" stroke-opacity="0.65"/>
<circle cx="370.1" cy="108.0" r="10" fill="none" stroke="#888" stroke-width="1.4" stroke-opacity="0.6"/>
<circle cx="370.1" cy="108.0" r="1.8" fill="#888" fill-opacity="0.7"/>
<circle cx="144.9" cy="186.0" r="22" fill="none" stroke="#888" stroke-width="2" stroke-opacity="0.65"/>
<circle cx="144.9" cy="186.0" r="10" fill="none" stroke="#888" stroke-width="1.4" stroke-opacity="0.6"/>
<circle cx="144.9" cy="186.0" r="1.8" fill="#888" fill-opacity="0.7"/>
<circle cx="235.0" cy="186.0" r="22" fill="none" stroke="#4c9f70" stroke-width="3" stroke-opacity="0.9"/>
<circle cx="235.0" cy="186.0" r="10" fill="none" stroke="#4c9f70" stroke-width="2" stroke-opacity="0.9"/>
<circle cx="235.0" cy="186.0" r="1.8" fill="#4c9f70" fill-opacity="0.7"/>
<text x="235.0" y="224.0" text-anchor="middle" fill="#999" font-size="13">(0,0)</text>
<circle cx="325.0" cy="186.0" r="22" fill="none" stroke="#888" stroke-width="2" stroke-opacity="0.65"/>
<circle cx="325.0" cy="186.0" r="10" fill="none" stroke="#888" stroke-width="1.4" stroke-opacity="0.6"/>
<circle cx="325.0" cy="186.0" r="1.8" fill="#888" fill-opacity="0.7"/>
<text x="325.0" y="224.0" text-anchor="middle" fill="#999" font-size="13">(1,0)</text>
<circle cx="415.1" cy="186.0" r="22" fill="none" stroke="#888" stroke-width="2" stroke-opacity="0.65"/>
<circle cx="415.1" cy="186.0" r="10" fill="none" stroke="#888" stroke-width="1.4" stroke-opacity="0.6"/>
<circle cx="415.1" cy="186.0" r="1.8" fill="#888" fill-opacity="0.7"/>
<circle cx="189.9" cy="264.0" r="22" fill="none" stroke="#888" stroke-width="2" stroke-opacity="0.65"/>
<circle cx="189.9" cy="264.0" r="10" fill="none" stroke="#888" stroke-width="1.4" stroke-opacity="0.6"/>
<circle cx="189.9" cy="264.0" r="1.8" fill="#888" fill-opacity="0.7"/>
<text x="189.9" y="302.0" text-anchor="middle" fill="#999" font-size="13">(-1,1)</text>
<circle cx="280.0" cy="264.0" r="22" fill="none" stroke="#888" stroke-width="2" stroke-opacity="0.65"/>
<circle cx="280.0" cy="264.0" r="10" fill="none" stroke="#888" stroke-width="1.4" stroke-opacity="0.6"/>
<circle cx="280.0" cy="264.0" r="1.8" fill="#888" fill-opacity="0.7"/>
<text x="280.0" y="302.0" text-anchor="middle" fill="#999" font-size="13">(0,1)</text>
<circle cx="370.1" cy="264.0" r="22" fill="none" stroke="#888" stroke-width="2" stroke-opacity="0.65"/>
<circle cx="370.1" cy="264.0" r="10" fill="none" stroke="#888" stroke-width="1.4" stroke-opacity="0.6"/>
<circle cx="370.1" cy="264.0" r="1.8" fill="#888" fill-opacity="0.7"/>
<circle cx="460.1" cy="264.0" r="22" fill="none" stroke="#888" stroke-width="2" stroke-opacity="0.65"/>
<circle cx="460.1" cy="264.0" r="10" fill="none" stroke="#888" stroke-width="1.4" stroke-opacity="0.6"/>
<circle cx="460.1" cy="264.0" r="1.8" fill="#888" fill-opacity="0.7"/>
<line x1="235.0" y1="186.0" x2="290.8" y2="186.0" stroke="#4c9f70" stroke-width="2.2" marker-end="url(#hb)"/>
<text x="296.8" y="180.0" fill="#4c9f70" font-size="13">+q</text>
<line x1="235.0" y1="186.0" x2="262.9" y2="234.4" stroke="#4c9f70" stroke-width="2.2" marker-end="url(#hb)"/>
<text x="238.9" y="238.4" fill="#4c9f70" font-size="13">+r</text>
<text x="280" y="346" text-anchor="middle" fill="#888" font-size="12">axial coordinates (q, r) on the hex lattice</text>
</svg>