<svg xmlns="http://www.w3.org/2000/svg" width="620" height="300" viewBox="0 0 620 300" font-family="sans-serif" font-size="13">
<title>ringgrid detection pipeline: eleven stages from proposal to final homography refit, grouped into per-marker and board-level phases</title>
<defs><marker id="ah" markerWidth="8" markerHeight="8" refX="6.5" refY="3" orient="auto"><path d="M0,0 L7,3 L0,6 Z" fill="#888"/></marker></defs>
<rect x="8" y="48" width="604" height="148" rx="10" fill="#888" fill-opacity="0.05" stroke="#888" stroke-opacity="0.35" stroke-dasharray="4 4"/>
<rect x="8" y="216" width="434" height="70" rx="10" fill="#4c9f70" fill-opacity="0.06" stroke="#4c9f70" stroke-opacity="0.4" stroke-dasharray="4 4"/>
<text x="16" y="60" fill="#999" font-size="12" font-style="italic">per-marker</text>
<text x="16" y="230" fill="#4c9f70" font-size="12" font-style="italic">board-level</text>
<rect x="20" y="64" width="122" height="40" rx="6" fill="#888" fill-opacity="0.1" stroke="#888" stroke-opacity="0.7"/><text x="81" y="88" text-anchor="middle" fill="#999">Proposal</text>
<rect x="166" y="64" width="122" height="40" rx="6" fill="#888" fill-opacity="0.1" stroke="#888" stroke-opacity="0.7"/><text x="227" y="88" text-anchor="middle" fill="#999">Outer Estimate</text>
<rect x="312" y="64" width="122" height="40" rx="6" fill="#888" fill-opacity="0.1" stroke="#888" stroke-opacity="0.7"/><text x="373" y="88" text-anchor="middle" fill="#999">Outer Fit</text>
<rect x="458" y="64" width="122" height="40" rx="6" fill="#888" fill-opacity="0.1" stroke="#888" stroke-opacity="0.7"/><text x="519" y="88" text-anchor="middle" fill="#999">Decode</text>
<rect x="458" y="148" width="122" height="40" rx="6" fill="#888" fill-opacity="0.1" stroke="#888" stroke-opacity="0.7"/><text x="519" y="172" text-anchor="middle" fill="#999">Inner Fit</text>
<rect x="312" y="148" width="122" height="40" rx="6" fill="#888" fill-opacity="0.1" stroke="#888" stroke-opacity="0.7"/><text x="373" y="172" text-anchor="middle" fill="#999">Dedup</text>
<rect x="166" y="148" width="122" height="40" rx="6" fill="#888" fill-opacity="0.1" stroke="#888" stroke-opacity="0.7"/><text x="227" y="172" text-anchor="middle" fill="#999">Projective Center</text>
<rect x="20" y="148" width="122" height="40" rx="6" fill="#888" fill-opacity="0.1" stroke="#888" stroke-opacity="0.7"/><text x="81" y="172" text-anchor="middle" fill="#999">ID Correction</text>
<rect x="20" y="232" width="122" height="40" rx="6" fill="#4c9f70" fill-opacity="0.12" stroke="#4c9f70" stroke-opacity="0.7"/><text x="81" y="256" text-anchor="middle" fill="#999">Global Filter</text>
<rect x="166" y="232" width="122" height="40" rx="6" fill="#4c9f70" fill-opacity="0.12" stroke="#4c9f70" stroke-opacity="0.7"/><text x="227" y="256" text-anchor="middle" fill="#999">Completion</text>
<rect x="312" y="232" width="122" height="40" rx="6" fill="#4c9f70" fill-opacity="0.12" stroke="#4c9f70" stroke-opacity="0.7"/><text x="373" y="256" text-anchor="middle" fill="#999">Final H Refit</text>
<line x1="142" y1="84" x2="166" y2="84" stroke="#888" stroke-width="1.3" marker-end="url(#ah)"/>
<line x1="288" y1="84" x2="312" y2="84" stroke="#888" stroke-width="1.3" marker-end="url(#ah)"/>
<line x1="434" y1="84" x2="458" y2="84" stroke="#888" stroke-width="1.3" marker-end="url(#ah)"/>
<line x1="519" y1="104" x2="519" y2="148" stroke="#888" stroke-width="1.3" marker-end="url(#ah)"/>
<line x1="458" y1="168" x2="434" y2="168" stroke="#888" stroke-width="1.3" marker-end="url(#ah)"/>
<line x1="312" y1="168" x2="288" y2="168" stroke="#888" stroke-width="1.3" marker-end="url(#ah)"/>
<line x1="166" y1="168" x2="142" y2="168" stroke="#888" stroke-width="1.3" marker-end="url(#ah)"/>
<line x1="81" y1="188" x2="81" y2="232" stroke="#888" stroke-width="1.3" marker-end="url(#ah)"/>
<line x1="142" y1="252" x2="166" y2="252" stroke="#888" stroke-width="1.3" marker-end="url(#ah)"/>
<line x1="288" y1="252" x2="312" y2="252" stroke="#888" stroke-width="1.3" marker-end="url(#ah)"/>
<text x="81" y="40" text-anchor="middle" fill="#888" font-size="11">grayscale image</text>
<line x1="81" y1="44" x2="81" y2="64" stroke="#888" stroke-width="1.3" marker-end="url(#ah)"/>
<line x1="434" y1="252" x2="464" y2="252" stroke="#4c9f70" stroke-width="1.3" marker-end="url(#ah)"/>
<text x="468" y="248" fill="#4c9f70" font-size="11">markers</text>
<text x="468" y="262" fill="#4c9f70" font-size="11">+ H</text>
</svg>